<?xml version="1.0" standalone="no"?>
<!DOCTYPE svg PUBLIC "-//W3C//DTD SVG 20010904//EN"
 "http://www.w3.org/TR/2001/REC-SVG-20010904/DTD/svg10.dtd">
<svg version="1.0" xmlns="http://www.w3.org/2000/svg"
 width="256.000000pt" height="254.000000pt" viewBox="0 0 256.000000 254.000000"
 preserveAspectRatio="xMidYMid meet">

<g transform="translate(0.000000,254.000000) scale(0.100000,-0.100000)"
fill="#000000" stroke="none">
<path d="M1095 2384 c-38 -8 -95 -26 -125 -40 l-55 -25 -53 27 c-29 15 -75 29
-101 32 l-48 4 -18 -43 c-14 -33 -20 -84 -26 -199 -4 -85 -11 -175 -17 -200
-5 -25 -13 -109 -16 -187 -8 -171 0 -205 62 -274 29 -32 39 -50 30 -53 -7 -2
-33 -9 -58 -16 -78 -21 -178 -80 -228 -134 -86 -95 -126 -208 -125 -356 2
-340 278 -665 693 -814 90 -33 264 -76 304 -76 42 0 228 64 331 115 353 172
570 457 592 775 10 142 -45 307 -127 385 -46 44 -141 94 -207 109 -36 8 -67
16 -69 19 -2 2 14 23 36 47 22 24 49 68 61 99 27 71 36 222 19 317 -7 38 -13
121 -15 184 -2 114 -23 231 -47 270 -8 13 -23 20 -43 20 -33 0 -110 -32 -137
-56 -15 -14 -22 -13 -80 14 -112 53 -162 64 -318 68 -105 3 -164 -1 -215 -12z
m420 -44 c39 -12 94 -35 124 -52 53 -29 53 -29 75 -10 32 30 105 64 128 60 14
-2 26 -16 35 -42 19 -56 36 -212 28 -263 -4 -27 0 -71 11 -119 20 -91 15 -244
-10 -315 -34 -93 -122 -169 -198 -169 -24 0 -69 -6 -101 -14 -57 -13 -60 -13
-103 11 -37 21 -55 25 -99 21 -58 -5 -84 -21 -116 -73 -17 -27 -19 -28 -19 -8
0 13 -13 37 -29 55 -27 31 -34 33 -93 33 -48 0 -73 -6 -102 -23 -21 -12 -46
-20 -56 -17 -10 3 -55 10 -100 15 -99 11 -152 38 -195 98 l-30 44 3 161 c2 96
9 188 17 225 9 36 15 113 15 180 0 111 9 169 29 202 9 12 17 13 58 2 26 -7 65
-24 86 -38 34 -23 41 -24 60 -11 36 23 108 48 177 63 100 21 316 12 405 -16z
m-300 -935 c32 -31 35 -89 6 -105 -46 -24 -96 2 -117 61 -8 26 -16 33 -32 31
-32 -5 -27 7 11 23 52 23 104 19 132 -10z m598 18 c-7 -2 -21 -2 -30 0 -10 3
-4 5 12 5 17 0 24 -2 18 -5z m-316 -26 c15 -15 14 -16 -4 -11 -16 4 -23 0 -28
-18 -12 -39 -56 -78 -89 -78 -33 0 -66 25 -66 49 0 23 28 61 54 72 31 13 115
4 133 -14z m364 -13 c46 -8 100 -25 119 -37 57 -34 129 -98 151 -134 61 -98
77 -288 39 -438 -44 -171 -198 -381 -360 -488 -108 -71 -283 -162 -370 -191
-98 -34 -155 -33 -297 5 -134 35 -234 74 -313 123 -30 19 -75 45 -100 57 -49
25 -222 196 -247 244 -9 17 -24 41 -34 55 -11 14 -36 66 -56 115 -36 87 -37
94 -37 210 -1 105 3 129 26 194 47 130 115 200 248 257 87 36 242 45 340 19
36 -10 73 -18 82 -18 10 -1 23 -14 29 -29 17 -42 56 -68 100 -68 32 0 45 -6
68 -32 l30 -33 34 34 c20 18 40 30 46 26 20 -12 79 15 107 48 29 34 86 61 174
82 76 18 124 18 221 -1z m-567 -124 c-12 -12 -16 -12 -29 1 -12 12 -13 19 -3
41 l13 26 16 -27 c14 -22 15 -28 3 -41z"/>
<path d="M990 1871 c-15 -29 -12 -56 8 -74 21 -19 45 -21 73 -7 22 12 27 68 7
88 -20 20 -76 15 -88 -7z"/>
<path d="M1476 1874 c-21 -21 -20 -57 2 -77 51 -46 124 13 87 69 -18 28 -65
32 -89 8z"/>
<path d="M1240 1811 c-8 -6 -17 -8 -21 -5 -4 2 -10 0 -14 -6 -3 -6 1 -13 9
-16 11 -4 16 -19 16 -43 0 -52 19 -111 37 -118 24 -9 40 20 47 86 4 38 12 61
21 65 8 3 15 10 15 17 0 6 -6 9 -14 6 -8 -3 -22 1 -33 8 -21 17 -42 18 -63 6z
m48 -60 c2 -19 1 -51 -3 -70 -9 -46 -21 -26 -30 52 -7 54 -6 59 11 55 13 -2
20 -13 22 -37z"/>
</g>
</svg>
